<?xml version="1.0" encoding="utf-8"?>
<!-- Generator: Adobe Illustrator 25.2.1, SVG Export Plug-In . SVG Version: 6.00 Build 0)  -->
<svg version="1.1" id="圖層_1" xmlns="http://www.w3.org/2000/svg" xmlns:xlink="http://www.w3.org/1999/xlink" x="0px" y="0px"
	 viewBox="0 0 2608 323.1" style="enable-background:new 0 0 2608 323.1;" xml:space="preserve">
<style type="text/css">
	.st0{fill:#FFFFFF;}
</style>
<path class="st0" d="M0,7.6h101.4l81,154l81.2-154h101.2v308h-81V151.2l-81.2,164.3h-40.5L81,151.2v164.3H0L0,7.6z"/>
<path class="st0" d="M693.1,150.3v22.4c0.3,116.4-63.7,150.1-141.7,150.3c-78.2-0.2-142.2-33.9-141.9-150.3v-22.4
	C409.1,33.7,473.1,0.2,551.3,0C629.5,0,693.1,33.9,693.1,150.3z M612.1,157.7c0.5-50.2-27.7-59.4-60.7-60
	c-33.2,0.7-61.4,9.9-60.9,60v7.6c-0.5,50.4,27.7,59.6,60.9,60.3c33.1-0.7,61.2-9.9,60.7-60.3V157.7z"/>
<path class="st0" d="M1014.1,150.3v22.4c0.3,116.4-63.7,150.1-141.7,150.3c-78.2-0.2-142.2-33.9-141.9-150.3v-22.4
	C730.2,33.7,794.2,0.2,872.4,0C950.7,0,1014.1,33.9,1014.1,150.3z M933.1,157.7c0.5-50.2-27.7-59.4-60.8-60
	c-33.2,0.7-61.4,9.9-60.9,60v7.6c-0.5,50.4,27.7,59.6,60.9,60.3c33.1-0.7,61.2-9.9,60.8-60.3V157.7z"/>
<path class="st0" d="M1256.6,7.6h81.2v308h-91.2l-111.6-188.2v188.1h-81V7.6h111.4l91.2,163.1L1256.6,7.6z"/>
<path class="st0" d="M1523.7,126.7c58,4.4,139.4,10.3,139.3,87.5c0,88-68,108.9-141,108.9c-72.8-0.2-133.2-13.3-141-108.9h84.8
	c9.3,23.8,30.8,30,56.1,30s56.1-6.2,56.1-30c0-13.5-25.2-15.6-57.8-17.9c-58-4.4-139.4-10.3-139.3-87.3c0-88,68-109.1,141-109.1
	c72.8,0.7,133.2,12.8,141,109.1h-84.9c-9.3-24.3-30.8-30-56.1-30c-25.2,0-56.1,5.5-56.1,30C1465.9,122.6,1491.1,124.4,1523.7,126.7z
	"/>
<path class="st0" d="M1781.5,210.4v105.2h-81V7.6h81v105.2h121.7V7.6h81.2v308h-81.2V210.4H1781.5z"/>
<path class="st0" d="M2312.5,150.3v22.4c0.3,116.4-63.7,150.1-141.7,150.3c-78.2-0.2-142.2-33.9-141.9-150.3v-22.4
	C2028.5,33.7,2092.5,0.2,2170.7,0C2248.9,0,2312.5,33.9,2312.5,150.3z M2231.5,157.7c0.5-50.2-27.7-59.4-60.8-60
	c-33.2,0.7-61.4,9.9-60.9,60v7.6c-0.5,50.4,27.7,59.6,60.9,60.3c33.1-0.7,61.2-9.9,60.8-60.3V157.7z"/>
<path class="st0" d="M2430.8,316V105.6h-96.3V8H2608v97.6h-96.3V316H2430.8z"/>
</svg>
